<?xml version="1.0" encoding="UTF-8"?>
<!DOCTYPE svg PUBLIC "-//W3C//DTD SVG 1.1//EN" "http://www.w3.org/Graphics/SVG/1.1/DTD/svg11.dtd">
<!-- Creator: CorelDRAW -->
<svg xmlns="http://www.w3.org/2000/svg" xml:space="preserve" width="39.1489mm" height="11.8239mm" version="1.1" style="shape-rendering:geometricPrecision; text-rendering:geometricPrecision; image-rendering:optimizeQuality; fill-rule:evenodd; clip-rule:evenodd"
viewBox="0 0 252.4 76.23"
 xmlns:xlink="http://www.w3.org/1999/xlink"
 xmlns:xodm="http://www.corel.com/coreldraw/odm/2003">
 <defs>
  <style type="text/css">
   <![CDATA[
    .fil0 {fill:black}
    .fil1 {fill:#6059FD}
   ]]>
  </style>
 </defs>
 <g id="Layer_x0020_1">
  <metadata id="CorelCorpID_0Corel-Layer"/>
  <g id="_105553178458240">
   <path class="fil0" d="M74.3 67.39l14.95 0 0 -25.37c0,-3.7 2.26,-7.48 5.55,-8.95 0.94,-0.42 2.72,-0.79 4.08,-0.79 5.62,0 8.38,3.78 8.38,9.4l0 25.71 14.95 0 0 -23.9c0,-0.73 0.06,-1.78 -0.02,-2.48 -0.17,-1.52 -0,-2.53 -0.37,-4.84 -0.06,-0.39 -0.14,-0.64 -0.21,-1.03 -0.06,-0.33 -0.11,-0.76 -0.22,-1.14 -0.76,-2.78 -2.15,-6.37 -4.25,-8.55 -0.45,-0.47 -0.85,-0.84 -1.3,-1.3 -0.46,-0.46 -0.88,-0.79 -1.41,-1.19l-1.58 -1.02c-3.76,-2.09 -6.58,-2.23 -10.68,-2.23 -1.11,0 -3,0.35 -4.03,0.61 -1.85,0.46 -4.99,1.81 -6.36,3.04 -0.44,0.4 -0.89,0.67 -1.3,1.07 -0.42,0.41 -0.74,0.85 -1.22,1.16l0 -24.35 -14.95 0 0 66.15z"/>
   <path class="fil1" d="M1.24 38.43c0.39,-0.26 0.78,-0.64 1.2,-0.96 2.27,-1.73 5.21,-2.18 8,-1.32 0.41,0.13 0.93,0.32 1.31,0.51 0.29,0.15 0.28,0.18 0.57,0.34l1.53 1.08c0.6,0.5 1.5,1.8 1.9,2.63 0.03,0.07 0.1,0.21 0.15,0.3 0.14,0.23 0.06,0.11 0.19,0.27 0,-1.01 -0.41,-2.12 -0.23,-4.2 0.14,-1.7 0.05,-2.33 0.56,-4.15 1.21,-4.33 4.09,-8.49 7.87,-10.71 1.2,-0.71 1.69,-1.02 3.07,-1.57 15.53,-3.79 24.21,7.24 24.84,16.89l17.56 0c-0.24,-4.53 -2.39,-10.34 -4.48,-14.11 -0.33,-0.6 -0.67,-1.11 -1.03,-1.69 -2.09,-3.35 -4.23,-5.46 -7.07,-7.99 -3.48,-3.1 -9.16,-5.95 -13.54,-7.08 -2.92,-0.75 -6.04,-1.22 -9.77,-1.22l-32.62 0 0 32.99z"/>
   <path class="fil0" d="M228.12 31.38c3.91,0 7.47,1.45 9.06,4.64 0.61,1.22 1.02,2.32 1.02,3.96l-20.5 0c0.09,-0.39 0.08,-0.53 0.14,-0.99 0.3,-2.03 1.2,-3.31 2.39,-4.74 1.43,-1.7 4.81,-2.88 7.88,-2.88zm-25.6 11.78c0,2.93 -0.02,4.75 0.66,7.61 0.2,0.86 0.42,1.65 0.69,2.37l2.51 5.08c0.21,0.3 0.46,0.61 0.68,0.91 1.59,2.12 2.66,3.04 4.64,4.53 1.71,1.28 3.96,2.42 6.04,3.13 6.56,2.24 14.17,2.31 20.9,0.37 7.6,-2.2 10.71,-6.05 11.34,-6.22 -0.12,-0.43 -2.39,-2.65 -2.86,-3.14 -0.24,-0.25 -0.25,-0.31 -0.46,-0.56l-4.5 -4.68c-0.66,0.35 -1.63,1.15 -2.79,1.74 -2.08,1.06 -4.65,1.78 -7.05,2.01 -5.09,0.49 -10.13,-0.12 -13.35,-4.57 -0.31,-0.43 -0.61,-0.97 -0.81,-1.46l-0.58 -1.8 34.32 0c0.9,-3.89 0.49,-9.96 -0.72,-13.66 -0.39,-1.2 -1.09,-3.06 -1.7,-4.07 -1.43,-2.36 -3.11,-4.45 -5.33,-6.11 -4.38,-3.28 -9.5,-4.92 -15.24,-4.92 -4.89,0 -7.68,0.18 -12.27,2.01 -0.75,0.3 -1.34,0.59 -2.01,0.94l-1.86 1.09c-1.67,1.1 -3.56,2.61 -4.78,4.17 -1.5,1.93 -2.25,2.93 -3.37,5.46 -1.15,2.6 -2.11,6.09 -2.11,9.78z"/>
   <path class="fil0" d="M168.54 67.39l15.18 0c0.22,-0.45 0.38,-0.93 0.61,-1.43 2.66,-5.97 5.4,-12.79 8.03,-18.92l11.18 -26.31 -15.97 0c-0.14,0.61 -0.48,1.25 -0.73,1.88 -1.29,3.23 -4.37,10.51 -5.26,13.2l-5.01 14.81c-0.12,0.37 -0.15,0.71 -0.44,0.92 -0.15,-0.64 -0.42,-1.31 -0.64,-1.97 -0.24,-0.71 -0.42,-1.25 -0.65,-1.95l-3.99 -11.75c-0.88,-2.66 -2.02,-4.99 -2.95,-7.59l-2.99 -7.55 -16.08 0c0.04,0.53 6.89,16.34 7.35,17.46l2.5 5.88c0.42,0.96 0.77,1.88 1.21,2.87l8.65 20.46z"/>
   <path class="fil0" d="M35.45 57.99l-18.46 0 0 18.24 15.01 0c3.34,-0.07 6.39,-0.23 8.34,-0.55 3.68,-0.61 6.89,-1.71 10.07,-3.3 1.02,-0.51 1.92,-1.03 2.9,-1.63l5.67 -4.42 2.72 -2.95c0.37,-0.47 0.63,-0.77 1,-1.26 1.48,-1.97 2.32,-3.3 3.43,-5.52 2.17,-4.35 3.09,-7.83 3.59,-12.3l-17.77 0c-0.08,0.45 -0.22,0.96 -0.34,1.4 -0.92,3.24 -2.36,5.35 -4.61,7.62l-1.6 1.34c-1.1,0.75 -1.91,1.33 -3.21,1.89 -1.82,0.79 -4.17,1.44 -6.72,1.44z"/>
   <polygon class="fil0" points="130.37,67.39 145.32,67.39 145.32,20.73 130.37,20.73 "/>
   <path class="fil0" d="M129.12 8.04c0,1.28 0.3,2.46 0.72,3.36 1.22,2.64 4.26,4.68 7.67,4.68 3.77,0 7.06,-1.42 8.5,-4.64 2.4,-5.39 -1.52,-11.44 -7.36,-11.44 -2.93,0 -4.91,0.21 -7.11,2.41 -0.35,0.35 -0.63,0.61 -0.92,1.01 -0.26,0.35 -0.57,0.83 -0.76,1.28 -0.38,0.91 -0.73,2.13 -0.73,3.35z"/>
   <path class="fil1" d="M-0 47.91c0,4.37 3.5,7.71 7.75,7.83 4.1,0.12 7.84,-3.46 7.84,-7.83 0,-2.03 -0.96,-4.09 -2.3,-5.44 -5.09,-5.08 -13.29,-1.12 -13.29,5.44z"/>
  </g>
 </g>
</svg>
