<svg fill="none" xmlns="http://www.w3.org/2000/svg" viewBox="0 0 30 30">
  <defs>
    <clipPath id="id0">
      <path d="M297.78 0c164.46 0 297.78 133.32 297.78 297.78 0 164.46-133.32 297.78-297.78 297.78C133.32 595.56 0 462.24 0 297.78 0 133.32 133.32 0 297.78 0z"/>
    </clipPath>
    <clipPath id="id1">
      <path d="M297.78 35.18c145.03 0 262.6 117.57 262.6 262.6 0 145.03-117.57 262.6-262.6 262.6-145.03 0-262.6-117.57-262.6-262.6 0-145.03 117.57-262.6 262.6-262.6z"/>
    </clipPath>
    <linearGradient id="id2" gradientUnits="userSpaceOnUse" x1="43.1" y1="297.06" x2="560.36" y2="297.77">
      <stop offset="0" style="stop-opacity:1;stop-color:black"/>
      <stop offset=".451" style="stop-opacity:1;stop-color:#bab8b8"/>
      <stop offset="1" style="stop-opacity:1;stop-color:black"/>
    </linearGradient>
    <style>
      .fil1{fill:none}.fil2{fill:#000}
    </style>
  </defs>
  <g id="Layer_x0020_1">
    <path d="M297.78 0c164.46 0 297.78 133.32 297.78 297.78 0 164.46-133.32 297.78-297.78 297.78C133.32 595.56 0 462.24 0 297.78 0 133.32 133.32 0 297.78 0z" style="fill:url(#id2)"/>
    <g style="clip-path:url(#id0)">
      <image x="-692.94" y="21.59" id="_2084275988064"/>
    </g>
    <path class="fil1" d="M297.78 0c164.46 0 297.78 133.32 297.78 297.78 0 164.46-133.32 297.78-297.78 297.78C133.32 595.56 0 462.24 0 297.78 0 133.32 133.32 0 297.78 0z"/>
    <path class="fil2" d="M297.78 35.18c145.03 0 262.6 117.57 262.6 262.6 0 145.03-117.57 262.6-262.6 262.6-145.03 0-262.6-117.57-262.6-262.6 0-145.03 117.57-262.6 262.6-262.6z"/>
    <g style="clip-path:url(#id1)">
      <path class="fil2" d="M-570.84 296.28h89.34v13.25h-89.34zm66.9 48.41h89.34v13.25h-89.34z" id="_2084275979952"/>
    </g>
    <path class="fil1" d="M297.78 35.18c145.03 0 262.6 117.57 262.6 262.6 0 145.03-117.57 262.6-262.6 262.6-145.03 0-262.6-117.57-262.6-262.6 0-145.03 117.57-262.6 262.6-262.6z" style="stroke:#21ad62;stroke-width:6.31;stroke-miterlimit:2.61313"/>
    <path d="M306.64 105.33c99.35 4.5 179.1 84.24 183.6 183.6H454.7v17.72h35.54c-4.5 99.36-84.24 179.1-183.6 183.6V454.7h-17.72v35.55c-99.35-4.5-179.1-84.24-183.6-183.6h35.54v-17.72h-35.54c4.5-99.36 84.24-179.1 183.6-183.6v35.55h17.72v-35.55zm19.39 119v146.92h11.3V224.33h-11.3zm22.6 0v146.92h22.6V224.33h-22.6zm-33.9 146.92V224.33h-22.6v146.92h22.6zm-90.41-146.92v146.92h22.6V224.33h-22.6zm45.21 146.92V224.33h-11.3v146.92h11.3zM195.7 211.82c.01-8.9 7.22-16.11 16.12-16.12h37.61v-10.75h-37.61c-14.83.02-26.85 12.03-26.86 26.86v37.61h10.75v-37.61zm204.17 171.93c-.01 8.9-7.22 16.11-16.12 16.12h-37.61v10.75h37.61c14.83-.02 26.85-12.03 26.86-26.86v-37.61h-10.75v37.61zm-188.05 16.12c-8.9-.01-16.11-7.22-16.12-16.12v-37.61h-10.75v37.61c.02 14.83 12.03 26.85 26.86 26.86h37.61v-10.75h-37.61zm198.8-188.05v37.61h-10.75v-37.61c-.01-8.9-7.22-16.11-16.12-16.12h-37.61v-10.75h37.61c14.83.02 26.85 12.03 26.86 26.86z" style="fill:#21ad62"/>
  </g>
</svg>
