<svg xmlns="http://www.w3.org/2000/svg" xml:space="preserve" style="shape-rendering:geometricPrecision;text-rendering:geometricPrecision;image-rendering:optimizeQuality;fill-rule:evenodd;clip-rule:evenodd" viewBox="0 0 113.29 23.07">
  <defs>
    <linearGradient id="id0" gradientUnits="userSpaceOnUse" x1="1.65" y1="11.5" x2="21.58" y2="11.53">
      <stop offset="0" style="stop-opacity:1;stop-color:black"/>
      <stop offset=".451" style="stop-opacity:1;stop-color:#bab8b8"/>
      <stop offset="1" style="stop-opacity:1;stop-color:black"/>
    </linearGradient>
    <style>
      .fil2{fill:#21ad62}
    </style>
  </defs>
  <g id="Layer_x0020_1">
    <path d="M11.47 0c6.33 0 11.47 5.16 11.47 11.53 0 6.38-5.14 11.54-11.47 11.54C5.13 23.07 0 17.91 0 11.53 0 5.16 5.13 0 11.47 0z" style="fill:#21ad62"/>
    <path class="fil2" d="M11.47 1.04c5.76 0 10.43 4.7 10.43 10.49 0 5.8-4.67 10.5-10.43 10.5s-10.43-4.7-10.43-10.5c0-5.79 4.67-10.49 10.43-10.49zm0 .45c5.52 0 9.99 4.5 9.99 10.04 0 5.55-4.47 10.05-9.99 10.05-5.52 0-9.99-4.5-9.99-10.05 0-5.54 4.47-10.04 9.99-10.04z"/>
    <path class="fil2" d="M11.8 4.35c3.68.17 6.64 3.15 6.81 6.85h-1.32v.67h1.32c-.17 3.7-3.13 6.68-6.81 6.85v-1.33h-.66v1.33c-3.69-.17-6.64-3.15-6.81-6.85h1.32v-.67H4.33c.17-3.7 3.12-6.68 6.81-6.85v1.33h.66V4.35zm.72 4.44v5.49h.42V8.79h-.42zm.84 0v5.49h.84V8.79h-.84zm-1.26 5.49V8.79h-.84v5.49h.84zM8.74 8.79v5.49h.84V8.79h-.84zm1.68 5.49V8.79H10v5.49h.42zM7.68 8.33c0-.34.27-.6.6-.61h1.39v-.4H8.28c-.55 0-1 .45-1 1.01v1.4h.4v-1.4zm7.58 6.41c0 .34-.27.6-.6.61h-1.4v.4h1.4c.55 0 1-.45 1-1.01v-1.4h-.4v1.4zm-6.98.61a.61.61 0 0 1-.6-.61v-1.4h-.4v1.4c0 .56.45 1.01 1 1.01h1.39v-.4H8.28zm7.38-7.02v1.4h-.4v-1.4c0-.34-.27-.6-.6-.61h-1.4v-.4h1.4c.55 0 1 .45 1 1.01z"/>
    <path d="M23.55 18.63h12.13v-3.54h-8.03V12.7h7.18V9.42h-7.18V7.14h7.92V3.6H23.55v15.03zm19.68 3.48c2.42 0 4.04-.58 5.08-1.63 1.03-1.03 1.5-2.52 1.5-4.64V7.01h-4.06v1.38c-.87-.93-1.9-1.63-3.62-1.63-2.67 0-5 2.06-5 5.41v.04c0 3.33 2.28 5.39 5.12 5.39 1.69 0 2.76-.8 3.57-1.74v.45c0 1.85-1.01 2.86-3.03 2.86-1.56 0-2.8-.41-4.04-1.1l-1.3 2.71c1.67.85 3.54 1.33 5.78 1.33zm.24-7.65c-1.39 0-2.37-.94-2.37-2.23v-.04c0-1.29.98-2.26 2.37-2.26 1.37 0 2.35.95 2.35 2.24v.04c0 1.29-.98 2.25-2.35 2.25zm14.41 4.45c3.71 0 6.4-2.77 6.4-6.08v-.04c0-3.31-2.67-6.03-6.36-6.03-3.71 0-6.4 2.76-6.4 6.07v.05c0 3.3 2.66 6.03 6.36 6.03zm.04-3.46c-1.43 0-2.45-1.2-2.45-2.62v-.04c0-1.4.94-2.58 2.41-2.58 1.43 0 2.45 1.21 2.45 2.62v.05c0 1.39-.94 2.57-2.41 2.57zm12.62 3.44c2.81 0 4.71-1.33 4.71-3.89v-.04c0-2.26-1.81-3.05-4.09-3.69-1.22-.37-1.88-.59-1.88-1.04v-.04c0-.32.32-.56.94-.56.91 0 2.22.41 3.41 1.08l1.39-2.58c-1.33-.86-3.08-1.35-4.76-1.35-2.67 0-4.63 1.37-4.63 3.84v.04c0 2.34 1.81 3.12 4.1 3.72 1.21.34 1.85.53 1.85.98v.05c0 .41-.32.62-1.02.62-1.2 0-2.65-.45-3.97-1.33l-1.52 2.47c1.6 1.16 3.52 1.72 5.47 1.72zm11.95.02c2.54 0 4.08-1.08 5.14-2.66l-2.71-1.98c-.64.75-1.26 1.2-2.22 1.2-1.36 0-2.3-1.13-2.3-2.64v-.04c0-1.42.96-2.58 2.26-2.58.98 0 1.6.45 2.16 1.23l2.75-2.07c-.98-1.56-2.56-2.59-4.93-2.59-3.65 0-6.19 2.77-6.19 6.05v.05c0 3.28 2.56 6.03 6.04 6.03zm9.88-.02c1.52 0 2.61-.58 3.4-1.46v1.2h4.01v-6.68c0-1.63-.36-2.83-1.24-3.69-.92-.93-2.33-1.42-4.4-1.42-1.98 0-3.37.37-4.67.9l.83 2.88c1.03-.41 1.96-.64 3.18-.64 1.56 0 2.31.68 2.31 1.89v.19c-.67-.24-1.71-.45-2.78-.45-2.71 0-4.52 1.24-4.52 3.65v.04c0 2.32 1.68 3.59 3.88 3.59zm1.45-2.56c-.83 0-1.43-.47-1.43-1.27v-.04c0-.86.69-1.44 1.86-1.44.6 0 1.17.13 1.58.3v.54c0 1.16-.83 1.91-2.01 1.91zm8.03 2.3h4.05v-6.29c0-1.27.73-1.96 1.71-1.96.96 0 1.62.69 1.62 1.96v6.29h4.06v-7.6c0-2.64-1.47-4.27-3.93-4.27-1.64 0-2.71.92-3.46 1.88V7.01h-4.05v11.62z" style="fill:#21ad62;fill-rule:nonzero"/>
  </g>
</svg>
